<?xml version="1.0" encoding="utf-8"?>
<!-- Generator: Adobe Illustrator 26.0.0, SVG Export Plug-In . SVG Version: 6.00 Build 0)  -->
<svg version="1.1" id="Capa_1" xmlns="http://www.w3.org/2000/svg" xmlns:xlink="http://www.w3.org/1999/xlink" x="0px" y="0px"
	 viewBox="0 0 16 16" style="enable-background:new 0 0 16 16;" xml:space="preserve">
<style type="text/css">
	.st0{fill:#FFFFFF;stroke:#C6C6C6;stroke-width:0.25;stroke-miterlimit:10;}
	.st1{fill:#FF0000;}
</style>
<g>
	<g>
		<path class="st0" d="M4.55,14.81c-1.21-0.67-2.16-1.6-2.85-2.79C1,10.84,0.64,9.52,0.64,8.07C0.64,6.62,1,5.3,1.69,4.12
			c0.7-1.18,1.65-2.1,2.85-2.78c1.21-0.66,2.54-1,4.02-1c1.34,0,2.62,0.34,3.85,1.02c1.22,0.69,2.17,1.59,2.85,2.73l-2.8,2.07
			c-0.66-1.01-1.27-1.65-2.27-2.09C9.7,3.87,9.15,3.76,8.56,3.76c-1.25,0-2.27,0.4-3.03,1.21C4.76,5.77,4.37,6.81,4.37,8.07
			c0,1.26,0.39,2.3,1.16,3.11C6.3,12,7.31,12.41,8.56,12.41c1.59,0,2.92-0.8,3.97-2.39l2.79,2.04c-0.72,1.18-1.67,2.11-2.85,2.77
			c-1.18,0.66-2.49,1-3.91,1C7.09,15.82,5.75,15.48,4.55,14.81z"/>
	</g>
	<circle class="st1" cx="8.74" cy="8.05" r="0.75"/>
</g>
</svg>
