<?xml version="1.0" encoding="utf-8"?>
<!-- Generator: Adobe Illustrator 26.0.0, SVG Export Plug-In . SVG Version: 6.00 Build 0)  -->
<svg version="1.1" id="Capa_1" xmlns="http://www.w3.org/2000/svg" xmlns:xlink="http://www.w3.org/1999/xlink" x="0px" y="0px"
	 viewBox="0 0 2922.75 843" style="enable-background:new 0 0 2922.75 843;" xml:space="preserve">
<style type="text/css">
	.st0{fill:#FFFFFF;}
</style>
<g>
	<g>
		<path class="st0" d="M1252.55,787.66V685.83h70.86v14.32h-55.11v28.42h43.26v14.32h-43.26v44.76H1252.55z"/>
		<path class="st0" d="M1356.55,685.83v101.83h-15.75V685.83H1356.55z"/>
		<path class="st0" d="M1456.72,773.34v14.32h-73.78V685.83h15.82v87.5H1456.72z"/>
		<path class="st0" d="M1472.4,787.66V685.83h18.67l35.17,72.43l35.24-72.43h18.6v101.83h-15.9V714.7l-32.32,65.76h-11.25
			l-32.32-65.76v72.96H1472.4z"/>
		<path class="st0" d="M1611.94,757.89c5.1,10.5,14.77,17.1,28.04,17.1c6,0,11.02-1.35,15-3.97c3.97-2.62,5.92-6.15,5.92-10.57
			c0-3.97-1.8-7.2-5.32-9.6c-3.52-2.32-9.45-4.87-17.77-7.5c-4.42-1.42-8.17-2.77-11.1-3.9c-3-1.12-6.07-2.62-9.3-4.42
			c-3.22-1.72-5.77-3.6-7.65-5.62c-3.67-3.9-6.45-9.75-6.37-16.72c0.23-18.6,17.55-28.34,34.64-28.34c8.77,0,16.27,1.95,22.49,5.92
			c6.22,3.97,10.87,9,14.02,15.07l-12.22,8.55c-2.4-4.42-5.7-8.02-9.82-10.95c-4.2-2.85-9-4.27-14.47-4.27
			c-5.17,0-9.6,1.27-13.27,3.75c-3.67,2.47-5.55,5.92-5.55,10.2c0,8.62,7.65,11.17,20.84,15.67c0.82,0.3,1.12,0.45,1.87,0.6
			c9.67,3.3,16.42,6,20.17,8.02c7.27,3.97,11.85,9.15,13.57,15.45c0.67,2.4,1.05,5.02,1.05,7.95c0,9.3-4.72,17.17-11.7,21.74
			c-6.97,4.57-15.75,7.12-24.74,7.12c-9.6,0-17.92-2.17-24.89-6.45c-7.05-4.27-12.15-9.82-15.22-16.65L1611.94,757.89z"/>
	</g>
</g>
<path class="st0" d="M2904.4,471.99l-172.79,24.69l-94.25,13.64l82.13,108.97C2803.41,605.33,2872.81,548.47,2904.4,471.99z"/>
<path class="st0" d="M2544.98,408.81l-53.33,125.55c44.66,53.91,112.12,88.26,187.6,88.26c9.69,0,19.24-0.58,28.63-1.68
	l-93.04-123.45L2544.98,408.81z"/>
<g>
	<g>
		<path class="st0" d="M151.54,595.69c-38.68-21.65-69.21-51.46-91.56-89.44c-22.36-37.97-33.72-80.21-33.72-126.7
			s11.36-88.73,33.72-126.7c22.36-37.97,52.88-67.43,91.56-89.08c38.68-21.29,81.63-31.94,128.83-31.94
			c42.94,0,84.11,11,123.51,32.65c39.04,22,69.56,51.11,91.57,87.66l-89.79,66.37c-21.29-32.3-40.81-52.88-72.76-67.08
			c-15.97-6.74-33.72-10.29-52.53-10.29c-40.1,0-72.76,12.78-97.24,38.68c-24.84,25.91-37.26,59.27-37.26,99.73
			s12.42,73.82,37.26,99.73c24.49,26.26,57.14,39.39,97.24,39.39c51.11,0,93.69-25.55,127.41-76.66l89.44,65.3
			c-23.07,37.97-53.59,67.79-91.57,88.73c-37.97,21.29-79.85,31.94-125.28,31.94C233.17,627.99,190.23,617.34,151.54,595.69z"/>
		<path class="st0" d="M563.22,138.93h116.76v302.02c0,26.26,7.81,47.2,23.78,62.46c15.62,15.62,36.91,23.42,63.53,23.42
			c53.95,0,87.66-33.01,87.66-85.89V138.93h116.76v308.41c0,56.07-18.1,100.08-54.66,132.38s-86.24,48.27-149.77,48.27
			c-64.24,0-114.28-15.97-150.12-47.56c-35.85-31.59-53.95-75.95-53.95-133.09V138.93z"/>
		<path class="st0" d="M1081.73,620.89V138.93h341.77v98.31h-225.01v89.44h196.97v97.95h-196.97v98.31h228.56v97.95H1081.73z"/>
		<path class="st0" d="M1627.2,620.89H1510.8V138.93h243.46c46.14,0,85.18,14.55,117.12,44.01c31.59,29.46,47.56,67.08,47.56,112.5
			c0,33.72-8.52,63.17-25.55,88.73c-17.39,25.55-40.46,44.36-69.21,56.78l100.79,180.29h-125.99l-91.21-166.45h-80.56V620.89z
			 M1627.2,238.3v117.12h101.86c42.94,0,70.27-24.84,70.27-59.98c0-33.01-27.33-57.14-70.27-57.14H1627.2z"/>
		<path class="st0" d="M2104.54,620.89l-170.71-481.96h127.41l120.67,364.49l119.6-364.49h127.41l-170.71,481.96H2104.54z"/>
	</g>
	<path class="st0" d="M2772.11,480.53l136.5-19.5c9.14-25.6,14.14-53.17,14.14-81.91c0-55.26-18.42-106.21-49.44-147.07
		C2873.32,232.04,2912.98,415.43,2772.11,480.53z"/>
	<path class="st0" d="M2537.72,399.6l48.74-122.08l-134.98,15.37c-10.15,26.81-15.73,55.86-15.73,86.23
		c0,54.8,18.11,105.37,48.66,146.06l53.33-125.55L2537.72,399.6z"/>
	<path class="st0" d="M2745.04,327.52c0,0-15.14,29.6-33.79,38.4c9.91-18.92,18.58-105.67-17.84-121.28
		C2750.24,277.52,2753.85,296.72,2745.04,327.52z"/>
	<path class="st0" d="M2745.04,327.52c0,0,19.18-138.22-286.01-46.81c-0.07-0.14-0.11-0.38-0.16-0.8c0,0-0.05-0.02,0.02-0.05
		c38.92-106.93,155.4-165.45,265.22-131.4c1,0.31,2,0.62,2.99,0.98l0.05,0.02C2747.7,171.07,2777.44,223.01,2745.04,327.52z"/>
	<path class="st0" d="M2744.95,327.49c0,0,19.18-138.22-286.01-46.81c-0.04-0.07-0.09-0.26-0.1-0.43
		c63.2-84.28,174.71-124.02,281.06-91.04c4.16,1.29,8.24,2.67,12.28,4.15C2761.6,222.95,2763.96,266.18,2744.95,327.49z"/>
</g>
<path d="M2702.3,172.07c-1.26,42.53,15.16,35.7,14.79,52.27C2724.66,207.62,2722.71,183.17,2702.3,172.07z"/>
</svg>
